<svg xmlns="http://www.w3.org/2000/svg" viewBox="0 0 370.185 89.109"><path fill="#ff5722" d="M33.958 28c-8.06 0-14.59 6.533-14.59 14.59L19.367 59l31.002-31H33.958zM53.21 49.004c-5.699-5.698-14.937-5.698-20.634-.002L20.973 60.606l43.842.002L53.21 49.004zm-44.135 1.81 8.185 8.184.001-30.923-8.186 8.186c-4.019 4.02-4.018 10.535 0 14.552zM0 53.088a7.416 7.416 0 0 0 7.416 7.417h8.344L0 44.747v8.342z"/><path fill="#303841" d="m129.313 60.77 2.023 2.022c-4.137 1.839-8.642 2.942-13.515 2.942C99.71 65.734 85 50.932 85 32.821S99.71 0 117.821 0c4.873 0 9.378 1.011 13.515 2.85l-2.023 2.023a31.191 31.191 0 0 0-11.492-2.207c-16.64 0-30.155 13.515-30.155 30.155s13.515 30.155 30.155 30.155c4.137 0 7.999-.735 11.492-2.206zm7.08 4.964v-26.11h2.665v26.11h-2.666zm1.286-36.774c1.563 0 2.758 1.195 2.758 2.666s-1.195 2.666-2.758 2.666c-1.47 0-2.666-1.195-2.666-2.666s1.195-2.666 2.666-2.666zm19.49 10.664v2.667c-5.7 0-10.388 4.596-10.388 10.388v13.055h-2.666v-26.11h2.666v5.057c2.39-3.126 6.16-5.057 10.389-5.057zm20.502 20.318 1.84 1.93c-5.057 5.057-13.332 5.057-18.48 0-5.056-5.056-5.056-13.33 0-18.478 5.148-5.057 13.423-5.057 18.48 0l-1.84 1.93c-4.045-4.045-10.664-4.045-14.71 0s-4.045 10.573 0 14.618 10.665 4.045 14.71 0zm28.96-20.318h2.666V52.68c0 7.171-5.884 13.055-13.055 13.055-7.262 0-13.054-5.884-13.054-13.055V39.624h2.666V52.68c0 5.7 4.688 10.297 10.388 10.297s10.39-4.597 10.39-10.297V39.624zm10.757 26.386v-2.666c2.482 0 4.413-1.93 4.413-4.413 0-2.666-2.023-4.597-4.23-6.711-2.298-2.207-4.596-4.413-4.596-7.54 0-3.033 2.39-5.423 5.424-5.423v2.666c-1.563 0-2.758 1.195-2.758 2.758 0 2.022 1.839 3.77 3.77 5.608 2.39 2.298 5.056 4.873 5.056 8.642 0 3.953-3.126 7.079-7.08 7.079zm13.422-3.034h10.849v2.758h-13.515V0h2.666v62.976zm21.33-2.114c4.045 3.125 9.929 2.85 13.698-.92l1.839 1.93c-5.057 5.057-13.331 5.057-18.48 0-5.056-5.056-5.056-13.33 0-18.478 4.781-4.78 12.412-5.057 17.468-.92h.092c.92.92.92.92 1.93 1.84zm-1.012-15.538c-3.677 3.678-4.045 9.562-.92 13.607l14.619-14.526c-4.046-3.126-9.93-2.85-13.699.92zm19.399 7.355a12.988 12.988 0 0 1 13.055-13.055c4.229 0 7.998 2.023 10.388 5.149V0h2.666v65.734h-2.666v-5.24c-2.39 3.126-6.16 5.24-10.388 5.24-7.263 0-13.055-5.884-13.055-13.055zm2.666 0c0 5.7 4.689 10.297 10.389 10.297S293.97 58.38 293.97 52.68c0-5.792-4.688-10.388-10.388-10.388s-10.39 4.596-10.39 10.388zm50.565-13.055h2.666V52.68c0 5.149-3.034 9.562-7.263 11.676 1.195.644 2.39 1.471 3.401 2.482 5.149 5.057 5.149 13.331 0 18.48-5.056 5.056-13.33 5.056-18.479 0l1.93-1.931c4.046 4.045 10.665 4.045 14.71 0s4.046-10.573 0-14.618-10.664-4.045-14.71 0l-1.93-1.93a17.398 17.398 0 0 1 3.494-2.483c-4.321-2.114-7.263-6.62-7.263-11.676a12.988 12.988 0 0 1 13.055-13.055c4.229 0 7.998 1.931 10.389 5.057v-5.057zm-10.39 23.352c5.7 0 10.39-4.597 10.39-10.297 0-5.792-4.69-10.388-10.39-10.388s-10.388 4.596-10.388 10.388c0 5.7 4.689 10.297 10.389 10.297zm23.536-2.114c4.046 3.125 9.93 2.85 13.699-.92l1.839 1.93c-5.057 5.057-13.331 5.057-18.48 0-5.056-5.056-5.056-13.33 0-18.478 4.781-4.78 12.412-5.057 17.468-.92h.092c.92.92.92.92 1.93 1.84zm-1.01-15.538c-3.678 3.678-4.046 9.562-.92 13.607l14.618-14.526c-4.046-3.126-9.93-2.85-13.699.92zm34.291-5.7v2.667c-5.7 0-10.389 4.596-10.389 10.388v13.055h-2.666v-26.11h2.666v5.057c2.39-3.126 6.16-5.057 10.39-5.057z"/></svg>